<?xml version="1.0" standalone="no"?>
<!DOCTYPE svg PUBLIC "-//W3C//DTD SVG 20010904//EN"
 "http://www.w3.org/TR/2001/REC-SVG-20010904/DTD/svg10.dtd">
<svg version="1.0" xmlns="http://www.w3.org/2000/svg"
 width="860.000000pt" height="860.000000pt" viewBox="0 0 860.000000 860.000000"
 preserveAspectRatio="xMidYMid meet">
<metadata>
Created by potrace 1.14, written by Peter Selinger 2001-2017
</metadata>
<g transform="translate(0.000000,860.000000) scale(0.100000,-0.100000)"
fill="#000000" stroke="none">
<path d="M5430 8078 c-129 -126 -406 -397 -614 -602 -208 -204 -400 -393 -426
-419 l-47 -48 0 -1144 0 -1145 36 32 c20 17 57 52 82 77 115 114 876 861 1034
1015 l175 171 -2 1147 -3 1147 -235 -231z"/>
<path d="M2539 7408 c0 -155 -7 -825 -13 -1391 l-3 -308 797 -797 c439 -439
804 -803 813 -810 15 -13 16 13 17 290 1 270 4 519 13 1312 3 203 1 231 -14
250 -20 26 -1600 1606 -1605 1606 -2 0 -4 -69 -5 -152z"/>
<path d="M5745 5840 c-443 -443 -805 -808 -805 -812 0 -4 84 -7 188 -8 103 -1
347 -3 542 -5 195 -2 526 -5 736 -7 l381 -3 808 808 c444 444 806 809 804 812
-4 3 -711 11 -1611 19 l-237 2 -806 -806z"/>
<path d="M4383 4237 c-1 -133 -5 -551 -8 -928 l-7 -686 807 -807 c444 -444
810 -805 812 -802 3 3 7 161 9 353 1 191 5 605 8 919 l6 572 -811 811 c-446
446 -812 811 -812 811 -1 0 -3 -109 -4 -243z"/>
<path d="M3914 3581 c-150 -146 -447 -438 -660 -648 l-389 -381 0 -1146 c0
-630 2 -1146 5 -1146 3 0 26 21 51 48 41 42 272 269 1050 1032 l220 215 -3
1146 -3 1147 -271 -267z"/>
<path d="M1759 3562 c-14 -4 -1629 -1612 -1629 -1622 0 -3 163 -6 363 -7 199
0 617 -4 928 -6 l565 -6 810 810 c445 445 807 809 804 810 -12 3 -389 8 -1050
14 -393 3 -729 7 -746 9 -17 1 -37 0 -45 -2z"/>
</g>
</svg>
